<svg id="Layer_1" data-name="Layer 1" xmlns="http://www.w3.org/2000/svg" viewBox="0 0 317.69 115.63"><defs><style>.cls-1{fill:#eb5551;}.cls-2{fill:#db3f3e;}.cls-3{fill:#fff;}.cls-4{fill:#ce2a30;}.cls-5{fill:#b32734;}</style></defs><title>Ofeianht-logo-oficial</title><path d="M238.9,185.17c0,22.64-42.2,76.3-61.45,76.3-6.49,0-8-4.56-8-10.76.24-28.79,38.16-74.61,38.16-74.61,0-.24-.3-.35-1-.35-16.79,0-59.74,10.82-61.27,14.63a1.37,1.37,0,0,1-1.22,1.11c-.65,0-1.23-.59-1.23-1.64,0-5.27,34.52-15,67.76-17.09,3.51-3.51,15.92-16.73,21.24-16.73,1.7,0,2.34.87,2.34,2.28,0,3.51-3.86,10.12-6.2,14.86C231.29,174.17,238.9,175.57,238.9,185.17Zm-3.28-.06c0-7-3.57-8.19-9-9.31-1.41,2.52-11,19.72-12.94,19.72-.35,0-1.17-.52-1.17-1.17s.59-1.58,1.76-3.21c4-5.21,8.13-13.23,9.54-15.8H212.09c-16.38,19.42-39.49,54.48-39.49,75.89,0,5.8,2.28,7.26,4.85,7.26C194.42,258.49,235.62,207.05,235.62,185.11Zm-20.78-12.82c.77.06,6,.3,9.43.47h.17c1.41,0,6.67-11.94,7.26-14.16C226.2,161.35,222.57,164.86,214.84,172.29Z" transform="translate(-142.93 -156.03)"/><path d="M200.4,269.9q4.22-8.16,15.8-25.28c0-1.05-3.69-.88-3.69-2.92v-.06c.06-3.34,7.43-5.68,11.24-6.85,5.67-8,31.6-40.73,34.23-40.73a1.29,1.29,0,0,1,1.4,1.41c0,7.54-11.29,20.83-23.64,29.37-.06,0-4.85,5-7.6,8.55a87.57,87.57,0,0,0,21.12-9.07,1.39,1.39,0,0,1,1.17,1.52c0,.58-10.12,7-24.75,11.41-3.16,4.21-6.15,8.25-6.32,9.83-1.35,7.61-15.39,24.58-17,24.58C201.8,271.66,200.4,270.08,200.4,269.9Zm20.54-31.25L216,241.11l2.11,1.23Zm35.28-40.37L238,220.51C246.39,214.54,256.05,202.43,256.22,198.28Z" transform="translate(-142.93 -156.03)"/><path d="M269.63,226.77c-.06,0-10.95,8.72-19.37,8.72-3.92,0-6-2.16-6-4.39,0-4.68,8.19-9.94,12.29-9.94,1.17,0,2.69.58,2.69,2.22,0,3.33-5.44,5.38-9,5.85-2.16.18-2.86,1.4-2.86,1.93,0,.76.47,1.47,4,1.47,7.08,0,17.67-8.31,18.2-8.31.35,0,.58.17.58.76v.17A2.19,2.19,0,0,1,269.63,226.77Zm-19.78.06c1.34-.06,6.2-1.75,6.2-2.51,0-.3-.18-.41-.53-.41C254.64,223.91,249.85,226.13,249.85,226.83Z" transform="translate(-142.93 -156.03)"/><path d="M267.17,229.64a7.53,7.53,0,0,1,2.34-5.5,4.92,4.92,0,0,1,3.63-2.28,1.56,1.56,0,0,1,1.64,1.64c0,1.22-2.64,2.34-3.87,3,0,0-.93.64-.93,3a1.64,1.64,0,0,0,1.81,1.29c5,0,14.28-4.68,17.44-6.61.35,0,.53.35.53.7,0,.7-.18,1.4-.53,1.58-3.51,2.46-11.94,6.73-18.37,6.73A3.58,3.58,0,0,1,267.17,229.64Zm9.83-13c0-.64.53-.94,1.11-.94a1.89,1.89,0,0,1,1.87,1.93,1.06,1.06,0,0,1-1.11,1A2.52,2.52,0,0,1,277,216.65Z" transform="translate(-142.93 -156.03)"/><path d="M283.26,230.93c0-4.57,10-9.83,14.93-9.83,1.93,0,2.45.93,2.45,1.81,0,.7-.41,1.35-.7,1.35l-.23,2.16c0,1.58.46,3.45,2.69,3.45,4.74,0,15.27-5.61,15.27-5.61a2.54,2.54,0,0,1,1.41,1.58c0,.7-11.94,6.67-16.86,6.67-4.62,0-4.91-4.1-4.91-5.09v-.18c-2.64,2.11-6.67,7-11.24,7C284.14,234.26,283.26,232.51,283.26,230.93Zm13.64-6.61h-.06c-3.22,0-10.94,3.21-10.94,6.67,0,.29.41.58.93.58C289.41,231.45,295.32,225.72,296.9,224.32Z" transform="translate(-142.93 -156.03)"/><path d="M313.11,232c0-1.93,3.86-8.07,5.27-8.07a1,1,0,0,1,1.05,1.05c0,.88-2.87,3.63-2.87,4.68,0,.23.18.41.59.41.7,0,9-6.5,12.17-6.5,1.17,0,1.58.53,1.58,1.35,0,1.58-1,4.21-1,5.27a.63.63,0,0,0,.71.64c3.68,0,14.33-5.32,15.56-6.55,0,0,.94.76.94,1.28-3.45,3.63-14.51,7.79-17.26,7.79a2.47,2.47,0,0,1-2.76-2.34c0-1.76.77-3.69.77-4.33l-.12-.12c-2.46,0-11.12,7.37-12.7,7.37A1.84,1.84,0,0,1,313.11,232Z" transform="translate(-142.93 -156.03)"/><path d="M377.6,225.13a1.93,1.93,0,0,1-.88,1.41q-14.75,7.91-17.38,7.9c-1.93,0-2.69-1.11-2.69-2.93a18.17,18.17,0,0,1,.93-4.62c-.7,0-3.62,1.93-8.71,5.91s-6.5,4.33-7.2,4.33c-.94,0-1.58-.41-1.58-1.23,0-1.64.7-3.86,4.68-9.71Q367.42,189,372,189c1.29,0,1.93.7,1.93,2.11,0,5.09-6.14,19.72-25.1,34.41-.71.93.06-.18-5.09,7.37q12.63-9.13,14.22-9.13c2.1,0,2.69.94,2.69,2.28,0,1.64-.94,3.81-.94,5.27l.18.17q4.22,0,14.39-6a10.47,10.47,0,0,1,2.46-1.23A.78.78,0,0,1,377.6,225.13Zm-26.86-4c5.73-5.27,20-19.67,20-27.21,0-.59-.12-.88-.35-.88C369,193.3,364.55,200.44,350.74,221.1Z" transform="translate(-142.93 -156.03)"/><path d="M375.67,230.34c0-4.21,1.4-8.54,6.32-16.21-4.39.35-7.55,1-10.36,1-1.4,0-1.4-1-1.4-1.76,0-1.4,7-4.39,8.07-4.39a1.12,1.12,0,0,1,.88,1.06c0,1.23-1.93,1.75-3,2.28,3.33-.53,5-.76,7.84-1.11,7-10.89,15.56-22.24,21.12-22.24,1.7,0,2.75,1.82,2.75,3.45,0,4.16-9,16.27-11.58,18.32h1.11c3.16,0,5.09.18,5.09,1.93,0,1.23-1.93,2.11-3.34,2.11-1.11,0-.06-1.35-3.74-1.35l-1.64.18s-12.17,11.17-14.45,12.46a8.14,8.14,0,0,0-.65,3.39c0,1.17.88,3.4,3,3.4,5.44,0,14.74-7.73,16.32-8.6.71,0,.88.7.88,1.58s-11.94,10-17.38,10A5.56,5.56,0,0,1,375.67,230.34Zm14.57-16.62-5,.36L380.41,222C381.4,221.74,390.24,213.72,390.24,213.72Zm15-20.36c0-.94-.47-1.58-1.11-1.58-2.75,0-10.13,9-16.8,19.25l5.68-.35C396.21,208.11,405.28,195.23,405.28,193.36Z" transform="translate(-142.93 -156.03)"/><path d="M252.71,252.49a3.82,3.82,0,0,1,1,2.84v4.93H251.2v-4.54a2.25,2.25,0,0,0-.45-1.53,1.63,1.63,0,0,0-1.3-.5,2,2,0,0,0-1.5.58,2.4,2.4,0,0,0-.56,1.74v4.25h-2.5v-8.61h2.39v1a3.37,3.37,0,0,1,1.23-.84,4.23,4.23,0,0,1,1.61-.29A3.56,3.56,0,0,1,252.71,252.49Z" transform="translate(-142.93 -156.03)"/><path d="M266.49,252.48a3.61,3.61,0,0,1,1.07,2.87v4.91h-2.33v-1.07a2.79,2.79,0,0,1-2.63,1.2,4,4,0,0,1-1.72-.34,2.6,2.6,0,0,1-1.11-.92,2.42,2.42,0,0,1-.38-1.35,2.25,2.25,0,0,1,.9-1.89,4.66,4.66,0,0,1,2.79-.68h2a1.59,1.59,0,0,0-.5-1.26,2.21,2.21,0,0,0-1.49-.44,4.15,4.15,0,0,0-1.35.22,3.44,3.44,0,0,0-1.13.58l-.89-1.74a5.42,5.42,0,0,1,1.68-.77,7.7,7.7,0,0,1,2-.27A4.45,4.45,0,0,1,266.49,252.48Zm-2.13,5.93a1.59,1.59,0,0,0,.71-.87v-.88h-1.72c-1,0-1.53.34-1.53,1a.88.88,0,0,0,.38.76,1.66,1.66,0,0,0,1,.28A2.15,2.15,0,0,0,264.36,258.41Z" transform="translate(-142.93 -156.03)"/><path d="M279.37,259.85a2.57,2.57,0,0,1-.9.4,4.66,4.66,0,0,1-1.13.14,3.38,3.38,0,0,1-2.38-.78,3,3,0,0,1-.84-2.31v-3.53h-1.33v-1.92h1.33v-2.1h2.5v2.1h2.14v1.92h-2.14v3.5a1.17,1.17,0,0,0,.28.84,1,1,0,0,0,.79.3,1.62,1.62,0,0,0,1-.32Z" transform="translate(-142.93 -156.03)"/><path d="M293.45,251.65v8.61h-2.37v-1a3.22,3.22,0,0,1-1.18.85,4.06,4.06,0,0,1-4.18-.68,3.88,3.88,0,0,1-1-2.89v-4.87h2.5v4.5c0,1.39.58,2.08,1.74,2.08a1.86,1.86,0,0,0,1.44-.58,2.49,2.49,0,0,0,.55-1.74v-4.26Z" transform="translate(-142.93 -156.03)"/><path d="M303.36,251.85a4.39,4.39,0,0,1,1.76-.32v2.3l-.57,0a2.26,2.26,0,0,0-1.67.6,2.41,2.41,0,0,0-.61,1.8v4.06h-2.5v-8.61h2.39v1.14A2.68,2.68,0,0,1,303.36,251.85Z" transform="translate(-142.93 -156.03)"/><path d="M317.1,252.48a3.65,3.65,0,0,1,1.07,2.87v4.91h-2.34v-1.07a2.76,2.76,0,0,1-2.62,1.2,4,4,0,0,1-1.72-.34,2.6,2.6,0,0,1-1.11-.92,2.42,2.42,0,0,1-.38-1.35,2.25,2.25,0,0,1,.9-1.89,4.66,4.66,0,0,1,2.79-.68h2a1.59,1.59,0,0,0-.5-1.26,2.21,2.21,0,0,0-1.49-.44,4.15,4.15,0,0,0-1.35.22,3.44,3.44,0,0,0-1.13.58l-.89-1.74a5.31,5.31,0,0,1,1.68-.77,7.64,7.64,0,0,1,2-.27A4.46,4.46,0,0,1,317.1,252.48ZM315,258.41a1.59,1.59,0,0,0,.71-.87v-.88H314c-1,0-1.53.34-1.53,1a.9.9,0,0,0,.37.76,1.68,1.68,0,0,0,1,.28A2.16,2.16,0,0,0,315,258.41Z" transform="translate(-142.93 -156.03)"/><path d="M324.43,248.39h2.49v11.87h-2.49Z" transform="translate(-142.93 -156.03)"/><path d="M343.46,259.82a4.22,4.22,0,0,1-2.33-3.86,4.21,4.21,0,0,1,.62-2.29,4.28,4.28,0,0,1,1.71-1.58,5.25,5.25,0,0,1,2.47-.56,4.79,4.79,0,0,1,2.38.56,3.4,3.4,0,0,1,1.48,1.63l-1.94,1a2.12,2.12,0,0,0-1.94-1.19,2.19,2.19,0,0,0-1.61.64,2.36,2.36,0,0,0-.64,1.75,2.33,2.33,0,0,0,.64,1.74,2.15,2.15,0,0,0,1.61.64,2.09,2.09,0,0,0,1.94-1.18l1.94,1a3.42,3.42,0,0,1-1.48,1.6,4.69,4.69,0,0,1-2.38.58A5.26,5.26,0,0,1,343.46,259.82Z" transform="translate(-142.93 -156.03)"/><path d="M356.77,259.82a4.27,4.27,0,0,1-1.69-1.57,4.43,4.43,0,0,1-.61-2.29,4.38,4.38,0,0,1,.61-2.29,4.29,4.29,0,0,1,1.69-1.58,5.13,5.13,0,0,1,2.44-.56,5.06,5.06,0,0,1,2.43.56,4.2,4.2,0,0,1,1.68,1.58,4.29,4.29,0,0,1,.61,2.29,4.34,4.34,0,0,1-.61,2.29,4.18,4.18,0,0,1-1.68,1.57,5.07,5.07,0,0,1-2.43.57A5.14,5.14,0,0,1,356.77,259.82Zm4-2.13a2.77,2.77,0,0,0,0-3.47,2.25,2.25,0,0,0-3.16,0,2.7,2.7,0,0,0,0,3.47,2.25,2.25,0,0,0,3.16,0Z" transform="translate(-142.93 -156.03)"/><path d="M370.39,260.13a5.56,5.56,0,0,1-1.63-.67l.83-1.79a5,5,0,0,0,1.4.6,6,6,0,0,0,1.6.23c1.05,0,1.58-.26,1.58-.78a.55.55,0,0,0-.43-.53,5.94,5.94,0,0,0-1.33-.27,13.2,13.2,0,0,1-1.74-.37,2.69,2.69,0,0,1-1.2-.74,2.11,2.11,0,0,1-.5-1.5,2.4,2.4,0,0,1,.47-1.45,3.06,3.06,0,0,1,1.38-1,5.73,5.73,0,0,1,2.13-.35,8,8,0,0,1,1.82.2,5,5,0,0,1,1.5.55l-.84,1.77a5,5,0,0,0-2.48-.64,2.52,2.52,0,0,0-1.2.23.67.67,0,0,0-.4.57.57.57,0,0,0,.44.56,7.33,7.33,0,0,0,1.37.31,16.09,16.09,0,0,1,1.73.37,2.67,2.67,0,0,1,1.17.73,2.06,2.06,0,0,1,.49,1.47,2.28,2.28,0,0,1-.48,1.43,3.08,3.08,0,0,1-1.4,1,6.2,6.2,0,0,1-2.18.34A8.75,8.75,0,0,1,370.39,260.13Z" transform="translate(-142.93 -156.03)"/><path d="M395.68,252.48a3.83,3.83,0,0,1,.95,2.85v4.93h-2.49v-4.54a2.31,2.31,0,0,0-.43-1.53,1.46,1.46,0,0,0-1.2-.5,1.83,1.83,0,0,0-1.4.56,2.47,2.47,0,0,0-.51,1.69v4.32h-2.49v-4.54c0-1.36-.55-2-1.64-2a1.78,1.78,0,0,0-1.37.56,2.47,2.47,0,0,0-.51,1.69v4.32h-2.5v-8.61h2.38v1a3.22,3.22,0,0,1,1.18-.84,4,4,0,0,1,1.53-.28,3.7,3.7,0,0,1,1.65.36,3,3,0,0,1,1.18,1,3.65,3.65,0,0,1,1.34-1,4.23,4.23,0,0,1,1.76-.36A3.44,3.44,0,0,1,395.68,252.48Z" transform="translate(-142.93 -156.03)"/><path d="M411.35,256.66h-6.51a2.06,2.06,0,0,0,.83,1.27,2.78,2.78,0,0,0,1.64.46,3.41,3.41,0,0,0,1.19-.2,2.88,2.88,0,0,0,1-.63l1.32,1.44a4.45,4.45,0,0,1-3.55,1.39,5.56,5.56,0,0,1-2.57-.57,4.13,4.13,0,0,1-1.73-1.57,4.34,4.34,0,0,1-.61-2.29,4.41,4.41,0,0,1,.6-2.28,4.21,4.21,0,0,1,1.65-1.59,5.15,5.15,0,0,1,4.63,0,4,4,0,0,1,1.61,1.56,4.64,4.64,0,0,1,.58,2.36S411.39,256.25,411.35,256.66Zm-5.84-2.77a2.08,2.08,0,0,0-.7,1.32h4.24a2.11,2.11,0,0,0-.7-1.31,2.32,2.32,0,0,0-2.84,0Z" transform="translate(-142.93 -156.03)"/><path d="M422.62,259.85a2.62,2.62,0,0,1-.91.4,4.52,4.52,0,0,1-1.12.14,3.36,3.36,0,0,1-2.38-.78,3,3,0,0,1-.84-2.31v-3.53H416v-1.92h1.33v-2.1h2.5v2.1H422v1.92h-2.14v3.5a1.17,1.17,0,0,0,.28.84,1,1,0,0,0,.79.3,1.65,1.65,0,0,0,1-.32Z" transform="translate(-142.93 -156.03)"/><path d="M428.15,250.05a1.3,1.3,0,0,1-.43-1,1.33,1.33,0,0,1,.43-1,1.59,1.59,0,0,1,1.12-.4,1.63,1.63,0,0,1,1.12.38,1.24,1.24,0,0,1,.44,1,1.38,1.38,0,0,1-.44,1,1.55,1.55,0,0,1-1.12.4A1.59,1.59,0,0,1,428.15,250.05Zm-.12,1.6h2.49v8.61H428Z" transform="translate(-142.93 -156.03)"/><path d="M438.53,259.82a4.26,4.26,0,0,1-1.71-1.57,4.34,4.34,0,0,1-.62-2.29,4.25,4.25,0,0,1,2.33-3.87,5.25,5.25,0,0,1,2.47-.56,4.79,4.79,0,0,1,2.38.56,3.35,3.35,0,0,1,1.48,1.63l-1.94,1a2.12,2.12,0,0,0-1.93-1.19,2.23,2.23,0,0,0-1.62.64,2.36,2.36,0,0,0-.64,1.75,2.33,2.33,0,0,0,.64,1.74,2.19,2.19,0,0,0,1.62.64,2.08,2.08,0,0,0,1.93-1.18l1.94,1a3.37,3.37,0,0,1-1.48,1.6,4.69,4.69,0,0,1-2.38.58A5.26,5.26,0,0,1,438.53,259.82Z" transform="translate(-142.93 -156.03)"/><path class="cls-1" d="M409,225.14a.36.36,0,0,1-.31-.63c2.82-2.44,7.34-8,13.5-17,1.74-2.54,2.87-5,5.15-9.83,3.23-6.9,3.83-9.85,7.17-14.14,2.33-3,4-5.15,7.14-6,5.42-1.44,10.23,2.54,10.57,2.83,3.75,3.2,4.35,7.57,4.6,9.39a20,20,0,0,1-1.67,10.37c-4.37,10.57-15.2,17.84-24.84,20.35-2,.52-2.18.37-10,2.06C415.75,223.56,411.87,224.46,409,225.14Z" transform="translate(-142.93 -156.03)"/><path class="cls-2" d="M418.63,209.92c-1.86,3.13-3.82,6.73-3.18,7.23.25.19.78-.13,1.1-.32,6.35-3.84,8.21-5.54,8.21-5.54,3.05-2.78,4.58-4.16,5.68-5.29a94.13,94.13,0,0,0,6.85-7.82,38,38,0,0,0,3.13-5.48c1.6-3.44,1.73-5.08,3.52-7.57.84-1.16,3.12-4.34,5.06-3.84,1.57.39,2.13,3,2.31,3.78.66,3-.47,5.82-2.35,9.26-2.3,4.21-4.69,8.6-9.66,13.19a111.44,111.44,0,0,1-9.39,8c-1.45,1-4,2.77-3.65,3.53.16.36.91.37,2,.39a14.52,14.52,0,0,0,4.17-.59,41.08,41.08,0,0,0,4.63-1.45,43.79,43.79,0,0,0,7.7-4,38.17,38.17,0,0,0,10-9.33,26.63,26.63,0,0,0,3.52-5.93,23.3,23.3,0,0,0,1.83-10,16.19,16.19,0,0,0-1.44-6.59c-1.84-3.86-5.85-7.71-11-8.18a11.56,11.56,0,0,0-4.14.36c-2.27.62-5.3,2.2-9.19,8.21a52.69,52.69,0,0,0-5.16,10.7A63,63,0,0,1,418.63,209.92Z" transform="translate(-142.93 -156.03)"/><path class="cls-3" d="M435.4,185.53c-.27.41-.67,1-1.14,1.77-.11.18-1.44,2.29-2.29,3.78a51.91,51.91,0,0,0-3.51,7.8h0c2.67-7.46,3.43-9.08,3.43-9.08s3.44-7.33,6.15-10.12a11.68,11.68,0,0,1,1.74-1.47,8.9,8.9,0,0,1,2.3-1.16,5.42,5.42,0,0,1,2.93-.27,12.08,12.08,0,0,0-3.89,1.51,13.56,13.56,0,0,0-1.44,1.25,13.18,13.18,0,0,0-1.09,1.28c-.44.56-.73,1-1.14,1.6-.27.41-.63,1-1,1.63Z" transform="translate(-142.93 -156.03)"/><path class="cls-3" d="M451,187.66a25.67,25.67,0,0,1-1.46,6.49,32.63,32.63,0,0,1-2.81,5.68,44.74,44.74,0,0,1-3.26,4.82,52.4,52.4,0,0,1-7,7.57c-2.16,1.93-4.13,2.93-8.76,6,5-1.46,8-2.82,10.69-4.76,9.2-6.61,12.83-11.48,13.76-12.79a42.89,42.89,0,0,0,3.52-6.26,13.39,13.39,0,0,0,1.17-3.27,15.13,15.13,0,0,0,.3-2.5,10.26,10.26,0,0,0-.25-3.37,3.14,3.14,0,0,0-.93-1.62c-.25-.22-.54-.47-.77-.41-.63.17,1.33,3.2.73,6.22a16.71,16.71,0,0,1-2.09,6.45,30.75,30.75,0,0,1-5,7c-1.88,1.88-4,2.81-5.91,4.68a28.29,28.29,0,0,0,6.81-11.35A27.9,27.9,0,0,0,451,187.66Z" transform="translate(-142.93 -156.03)"/><path class="cls-4" d="M442.66,188.6c0-.34-.34-3.66,1.69-5.52a4.61,4.61,0,0,1,2.33-1.23,4.15,4.15,0,0,1,1.65,0,5,5,0,0,1,3.13,2.74,5.54,5.54,0,0,0-1.56-.89,4.93,4.93,0,0,0-2.63-.31,5.2,5.2,0,0,0-2.93,2A8.09,8.09,0,0,0,442.66,188.6Z" transform="translate(-142.93 -156.03)"/><path class="cls-5" d="M417.55,216.76c8.73-7.22,13.13-12.47,15.54-16s5.79-6.61,7.3-10.63c.39-1,1.41-4,2.87-4a1.17,1.17,0,0,1,.95.43c.64.86-.47,2.69-2.89,6.25a97.41,97.41,0,0,1-6.94,9.41c-.6.7-1.93,2.25-3.58,3.94A73.74,73.74,0,0,1,417.55,216.76Z" transform="translate(-142.93 -156.03)"/><path class="cls-5" d="M449.44,209.08s12.42-12.52,8.8-23.77c-1.1-3.44-1.36-4.7-1.18-4.77s2.19,2.81,3,6.14a18.62,18.62,0,0,1-.53,10.42A22.21,22.21,0,0,1,449.44,209.08Z" transform="translate(-142.93 -156.03)"/><path class="cls-3" d="M460.57,209.09" transform="translate(-142.93 -156.03)"/><path class="cls-3" d="M458.54,209.54" transform="translate(-142.93 -156.03)"/></svg>